<svg width="32" height="32" viewBox="0 0 32 32" fill="none" xmlns="http://www.w3.org/2000/svg">
  <rect width="32" height="32" fill="white"/>
  <path d="M29.626 2.95026C28.523 1.49353 26.601 0.748605 24.8128 0.781713C23.2752 0.81482 22.005 1.52663 21.1694 2.6854C21.0524 1.24522 20.3672 -0.0790838 18.6123 0.0036851C17.058 0.086454 15.8046 1.31143 15.5205 2.76817C14.5511 1.65906 13.1138 0.947251 11.6264 1.47697C10.2894 1.95703 9.83814 3.34755 10.1055 4.60564C7.86604 3.23167 4.30622 3.96004 2.75194 6.12858C1.44835 7.89984 1.96644 10.3829 3.33689 11.9555C4.79089 13.6109 7.49836 14.1903 9.47046 13.1474V13.1639C9.47046 13.9751 9.35347 14.7697 9.15292 15.5477C8.35071 15.8457 7.71562 16.6237 7.39808 17.3686C7.06383 18.1466 7.14739 18.9578 7.46493 19.7027C7.26438 19.5868 7.04711 19.5371 6.79642 19.5868C6.26162 19.6696 5.87722 20.1331 5.64324 20.5966C5.40927 21.0932 5.34241 21.6726 5.57639 22.1692C5.82708 22.6989 6.56244 22.9141 7.08054 22.6824C6.99698 23.4935 7.01369 24.3046 7.1641 25.1489C7.74905 28.5921 10.4064 31.1082 13.8158 31.7207C17.0079 32.3001 20.4842 32.0849 23.1248 30.0488C24.4952 28.9894 25.3643 27.3836 25.6818 25.7117C25.9659 24.2384 25.6818 22.7651 25.1637 21.3746C25.7152 21.3084 26.2668 20.9773 26.4339 20.4642C26.601 19.9179 26.2835 19.3054 25.9492 18.8916C25.615 18.4777 25.1303 18.0804 24.5788 18.0142C24.2111 17.9645 23.9771 18.1797 23.8601 18.4446C23.6261 17.948 23.3922 17.4679 23.1749 16.9713C24.2111 16.723 25.1804 16.2761 26.0161 15.5808C27.0355 14.7366 28.7737 12.5846 26.7681 11.7569C24.9297 10.9954 23.4423 12.27 22.1387 13.5116C21.9883 12.6673 21.9047 11.8065 21.8212 10.9292V10.9126C21.8379 10.8795 21.8379 10.8464 21.8379 10.8133C24.4785 10.8133 27.5871 10.4491 29.2751 8.24747C30.5619 6.6252 30.9129 4.60564 29.626 2.95026ZM27.069 12.6342C27.1358 12.7501 27.1692 12.8825 27.1692 13.015C27.1692 12.9984 27.1525 12.9819 27.1358 12.9653C27.1358 12.9322 27.1358 12.8991 27.1191 12.866C27.0857 12.8163 27.0523 12.7667 27.0188 12.7004C27.0523 12.6839 27.069 12.6673 27.069 12.6342ZM26.3837 12.1873C26.3503 12.2038 26.3336 12.2038 26.3169 12.2204C26.1832 12.1542 26.0328 12.1045 25.8824 12.0714C26.0495 12.1045 26.2166 12.1376 26.3837 12.1873ZM25.8322 13.0812C25.8489 13.0646 25.8489 13.0481 25.8657 13.0315C25.8991 13.0315 25.9158 13.0315 25.9492 13.0315C25.9158 13.0646 25.8991 13.1143 25.8657 13.1474C25.8489 13.1308 25.8322 13.1308 25.8155 13.1143C25.8155 13.1143 25.8322 13.0977 25.8322 13.0812ZM24.2278 12.5349C24.2278 12.5515 24.2278 12.568 24.2111 12.5846C24.0105 12.7004 23.8267 12.8329 23.6261 12.9487C23.8434 12.7998 24.0273 12.6673 24.2278 12.5349ZM7.31452 21.3415C7.18082 21.1098 6.99698 20.878 6.84656 20.729C6.74628 20.6297 6.59587 20.7787 6.69615 20.878C6.86327 21.0601 6.98026 21.2422 7.09725 21.4574C7.1641 21.5898 7.19753 21.7222 7.23095 21.8712C7.19753 22.0533 7.18082 22.2354 7.14739 22.4175H7.13068C6.71286 22.3016 6.26162 22.3513 6.04435 21.9043C5.89393 21.5898 6.01092 21.1594 6.14463 20.8615C6.27833 20.5469 6.52902 20.2159 6.86327 20.1165C7.11396 20.0338 7.36466 20.1662 7.58192 20.3152C7.48164 20.6463 7.39808 20.9939 7.31452 21.3415ZM24.6958 18.4115C25.0969 18.5274 25.4311 18.875 25.6818 19.1895C25.8991 19.4875 26.1331 19.8848 26.0495 20.2655C25.9492 20.729 25.4478 20.7952 25.03 20.8615C24.9632 20.6959 24.8963 20.5138 24.8128 20.3483C24.8128 20.3317 24.796 20.3317 24.796 20.3152C24.8128 20.2821 24.8295 20.2324 24.8295 20.2159C24.8462 20.1165 24.8796 20.0172 24.913 19.9344C24.9966 19.6861 25.1804 19.4544 25.1971 19.1895C25.2139 19.0736 25.0467 18.9909 24.9632 19.0571C24.7459 19.2061 24.6289 19.5206 24.5621 19.802C24.4116 19.4875 24.2779 19.1895 24.1275 18.875C24.1777 18.5605 24.3281 18.3122 24.6958 18.4115ZM22.5231 17.0872C22.5398 17.1203 22.5398 17.1534 22.5565 17.1865C23.3755 19.0736 24.4451 20.8615 24.9297 22.8645C25.4311 24.9171 24.913 27.1188 23.5259 28.7245C22.3894 30.0654 20.7014 30.7606 18.9967 31.1082C15.5038 31.8035 11.1752 31.0255 9.05264 27.9465C7.91618 26.2911 7.5485 24.1722 7.83261 22.2023C7.9496 21.3581 8.20029 20.5469 8.4677 19.7523C9.0025 18.9412 9.47046 18.0804 10.0387 17.2693C10.7741 16.2429 11.593 15.6305 12.696 15.2663C13.6486 15.4318 14.5511 15.8125 15.487 16.1767C16.7071 16.6568 17.9772 16.9548 19.2975 17.1037C20.3839 17.2527 21.4702 17.2527 22.5231 17.0872ZM9.93842 13.2136C10.0053 13.2136 10.0554 13.197 10.1055 13.1308C11.3757 11.6575 13.6486 10.8961 15.4703 10.416C17.2085 9.95251 19.8156 9.50556 21.2362 10.9292C21.2864 11.8893 21.3699 12.8163 21.5371 13.7268C20.0496 12.4852 17.7266 12.5183 15.9216 12.8329C13.8826 13.1805 11.6264 14.0082 9.85485 15.1669C9.95513 14.5214 9.98856 13.8592 9.93842 13.2136ZM18.5789 15.8457C18.3951 15.8291 18.2112 15.796 18.0274 15.7794C17.9438 15.7629 17.8603 15.7298 17.7934 15.7132C18.0608 15.7463 18.3115 15.796 18.5789 15.8457ZM28.6567 7.99916C26.952 10.0187 23.8434 10.1015 21.3866 10.1512C19.9326 8.90962 17.3756 9.29036 15.6709 9.68765C13.6821 10.1512 11.0916 11.0119 9.77129 12.7004C9.73786 12.6839 9.70444 12.6673 9.6543 12.6839C7.63206 13.2633 5.52625 13.1474 3.93854 11.6079C2.5681 10.2836 2.25056 8.06538 3.32017 6.45966C4.18924 5.16847 5.87722 4.55597 7.39808 4.53942C9.06935 4.53942 10.3061 5.38366 11.1752 6.72452C11.0415 7.02249 11.0247 7.35356 11.1417 7.71775C11.2086 7.93295 11.5763 7.89984 11.5428 7.66809C11.5094 7.46944 11.5094 7.25424 11.5596 7.07215C11.7267 7.0556 11.8771 6.92317 11.8102 6.72452C11.8102 6.70797 11.7935 6.70797 11.7935 6.69141C12.0275 6.49277 12.3952 6.42655 12.696 6.37689C12.9801 6.34378 12.8799 5.92994 12.6292 5.91339C12.2281 5.88028 11.8604 5.9796 11.593 6.1948C11.3423 5.69819 11.008 5.28434 10.6069 4.95327C10.4732 3.76139 10.5568 2.4702 11.9105 2.00669C13.398 1.51008 14.8018 2.65229 15.5038 3.82761C15.6542 4.07592 16.1388 3.99315 16.1054 3.66207C15.9717 2.22189 16.9411 0.963804 18.3616 0.665836C20.2502 0.268546 20.6346 2.22189 20.5176 3.66207C20.1666 3.56275 19.7822 3.54619 19.4145 3.66207C19.1806 3.74484 19.1973 4.14213 19.4814 4.10902C19.8491 4.05936 20.1666 4.05936 20.5009 4.2249C20.551 4.34078 20.668 4.40699 20.785 4.40699C20.9855 4.58908 21.1025 4.83739 21.2195 5.0857C21.3198 5.3009 21.7209 5.20157 21.6875 4.95327C21.6373 4.55597 21.4368 4.2249 21.1527 3.99315C22.4228 0.698944 26.835 0.765159 28.9909 3.23167C30.2778 4.70496 29.8099 6.6252 28.6567 7.99916Z" fill="#3C3C3B"/>
  <path d="M13.6319 20.8448C13.4647 20.9772 13.5483 21.3249 13.799 21.2256C14.9856 20.7786 16.1555 20.4806 17.4257 20.7124C18.746 20.9607 19.8156 21.838 19.8824 23.212C19.966 24.9667 18.6123 26.2579 17.1917 26.4565C17.1248 26.4234 17.058 26.44 17.0078 26.4731C16.0218 26.5559 15.019 26.0924 14.4341 24.917C14.3505 24.7515 14.0998 24.8674 14.15 25.0329C14.2837 25.4468 14.4675 25.811 14.7182 26.1089C15.6374 26.7545 16.941 27.2015 18.044 26.8042C18.7627 26.5393 19.2808 25.9765 19.7989 25.4302C20.1331 24.9336 20.3504 24.3377 20.4172 23.7417C20.8016 20.2985 16.0385 19.0239 13.6319 20.8448Z" fill="#3C3C3B"/>
  <path d="M17.5093 29.0721C17.3421 29.2211 17.2753 29.4197 17.0747 29.5356C16.9243 29.6184 16.7572 29.4694 16.6736 29.3535C16.5901 29.2376 16.4062 29.3038 16.4229 29.4528C16.4731 29.7674 16.7071 30.0157 17.058 29.966C17.4257 29.9163 17.7934 29.5687 17.8435 29.2045C17.8602 29.039 17.6263 28.9893 17.5093 29.0721Z" fill="#3C3C3B"/>
  <path d="M11.0917 19.2887C10.0722 19.5536 9.87164 20.7289 10.4566 21.4904C10.6237 21.7056 11.0582 21.5897 10.9413 21.2918C10.7574 20.8283 10.6571 20.1992 11.2421 20.0006C11.8103 19.8019 12.0777 20.3151 12.061 20.8283C12.0443 21.2918 12.7797 21.2918 12.7964 20.8283C12.8298 19.835 12.1279 19.0073 11.0917 19.2887Z" fill="#3C3C3B"/>
  <path d="M19.9327 20.1165C19.9995 20.3648 20.3839 20.3151 20.3839 20.0502C20.3839 19.4874 20.6012 18.9411 21.253 19.1067C21.4869 19.1729 21.6875 19.3384 21.8045 19.5536C21.9883 19.8847 21.7376 20.2158 21.8045 20.5469C21.8546 20.7289 22.1053 20.8448 22.2557 20.7289C22.707 20.4144 22.6234 19.6861 22.4229 19.2391C22.239 18.8418 21.8379 18.5604 21.4201 18.428C21.0023 18.2955 20.5677 18.3949 20.2168 18.6597C19.8157 19.0239 19.8157 19.653 19.9327 20.1165Z" fill="#3C3C3B"/>
</svg>
