<svg width="410" height="408" viewBox="0 0 410 408" fill="none" xmlns="http://www.w3.org/2000/svg">
  <path d="M117.383 62.5329C129.279 62.5329 138.923 52.8895 138.923 40.9938C138.923 29.0981 129.279 19.4547 117.383 19.4547C105.488 19.4547 95.8443 29.0981 95.8443 40.9938C95.8443 52.8895 105.488 62.5329 117.383 62.5329Z" fill="white"/>
  <path d="M289.948 90.6632C315.029 90.6632 335.362 70.3675 335.362 45.3316C335.362 20.2956 315.029 0 289.948 0C264.866 0 244.534 20.2956 244.534 45.3316C244.534 70.3675 264.866 90.6632 289.948 90.6632Z" fill="white"/>
  <path d="M110.435 272.366C130.006 272.366 145.871 256.501 145.871 236.93C145.871 217.36 130.006 201.495 110.435 201.495C90.8649 201.495 75 217.36 75 236.93C75 256.501 90.8649 272.366 110.435 272.366Z" fill="white"/>
  <path d="M285.506 252.321C303.694 252.321 318.438 237.604 318.438 219.449C318.438 201.294 303.694 186.577 285.506 186.577C267.319 186.577 252.575 201.294 252.575 219.449C252.575 237.604 267.319 252.321 285.506 252.321Z" fill="white"/>
  <path d="M290.187 286.32C232.854 286.32 176.649 286.32 119.78 286.32C120.311 283.815 121.24 281.576 121.108 279.391C120.975 277.206 119.847 275.021 118.984 272.942C118.055 270.81 116.131 268.838 115.865 266.707C111.021 223.536 110.026 180.313 110.822 137.036C110.822 136.663 111.088 136.29 111.486 135.224C113.676 135.117 116.197 134.958 118.719 134.958C176.184 134.958 233.65 135.011 291.116 134.851C297.619 134.851 299.808 136.13 299.543 141.513C297.552 183.031 295.893 224.549 294.035 266.014C293.969 267.346 294.102 269.211 293.173 269.851C286.537 274.381 288.329 279.977 290.187 286.32ZM145.129 176.316C145.129 170.027 145.063 163.738 145.129 157.449C145.129 153.505 143.404 150.36 138.161 150.254C132.919 150.147 130.862 153.132 130.862 157.129C130.862 169.707 130.862 182.338 130.862 194.916C130.862 198.7 132.853 201.418 137.763 201.472C143.072 201.525 145.129 198.647 145.129 194.65C145.129 188.521 145.129 182.445 145.129 176.316Z" fill="#79AE7A"/>
  <path d="M112.081 126.03C112.081 111.775 111.748 97.948 112.214 84.1749C112.68 71.3129 113.878 58.3974 114.944 45.5354C115.61 37.1751 117.94 35.1922 127.994 33.6916C178.932 25.9208 229.802 25.8672 280.673 33.7452C291.925 35.5137 293.923 36.7999 294.589 46.1249C296.453 70.9378 297.851 95.7507 299.516 120.51C299.782 124.261 299.117 126.566 293.124 126.512C233.997 126.352 174.936 126.405 115.809 126.405C114.211 126.459 112.613 126.084 112.081 126.03ZM144.84 86.4258C144.84 80.0484 144.84 73.7246 144.84 67.3472C144.84 63.435 143.176 60.2195 137.782 60.1123C132.389 60.0587 130.458 63.0598 130.458 67.0792C130.458 79.4053 130.525 91.7314 130.458 104.057C130.458 108.023 132.056 111.185 137.449 111.239C143.309 111.292 144.84 107.916 144.774 103.736C144.774 98.0016 144.84 92.2137 144.84 86.4258Z" fill="#79AE7A"/>
  <path d="M281.499 140.409H289.837C289.837 140.409 287.717 193.355 286.94 200.797C286.163 208.238 282.771 158.718 281.499 141.159" fill="#364B36"/>
  <path d="M281.499 119.565H289.824C289.824 119.565 290.177 78.5861 287.143 61.201C287.073 61.201 282.769 93.5955 281.499 119.565Z" fill="#364B36"/>
  <path d="M15.5345 365.185V318.817H51.6065V330.265H31.0145V336.169H48.9425V347.905H31.0145V353.737H51.6065V365.185H15.5345ZM89.5263 365.905C80.7423 365.905 74.0703 363.865 69.5103 359.785C64.9983 355.705 62.7423 349.825 62.7423 342.145C62.7423 334.273 64.9743 328.297 69.4383 324.217C73.9023 320.137 80.5503 318.097 89.3823 318.097C92.3583 318.097 94.9743 318.313 97.2303 318.745C99.4863 319.177 101.67 319.801 103.782 320.617V334.081C101.574 333.121 99.3903 332.401 97.2303 331.921C95.1183 331.441 92.8623 331.201 90.4623 331.201C86.5743 331.201 83.5983 332.041 81.5343 333.721C79.5183 335.353 78.5103 338.161 78.5103 342.145C78.5103 346.033 79.5663 348.793 81.6783 350.425C83.8383 352.009 86.8143 352.801 90.6063 352.801C92.9583 352.801 95.2143 352.585 97.3743 352.153C99.5343 351.673 101.718 350.953 103.926 349.993V363.529C101.814 364.297 99.6063 364.873 97.3023 365.257C95.0463 365.689 92.4543 365.905 89.5263 365.905ZM139.732 365.905C134.548 365.905 130.156 365.113 126.556 363.529C122.956 361.945 120.196 359.401 118.276 355.897C116.404 352.393 115.468 347.785 115.468 342.073C115.468 336.265 116.404 331.609 118.276 328.105C120.196 324.601 122.956 322.057 126.556 320.473C130.156 318.889 134.548 318.097 139.732 318.097C144.916 318.097 149.308 318.889 152.908 320.473C156.508 322.057 159.244 324.601 161.116 328.105C163.036 331.609 163.996 336.265 163.996 342.073C163.996 347.785 163.036 352.393 161.116 355.897C159.244 359.401 156.508 361.945 152.908 363.529C149.308 365.113 144.916 365.905 139.732 365.905ZM139.732 352.801C142.708 352.801 144.844 351.961 146.14 350.281C147.484 348.601 148.156 345.865 148.156 342.073C148.156 338.089 147.484 335.305 146.14 333.721C144.844 332.089 142.708 331.273 139.732 331.273C136.708 331.273 134.524 332.089 133.18 333.721C131.884 335.305 131.236 338.089 131.236 342.073C131.236 345.865 131.884 348.601 133.18 350.281C134.524 351.961 136.708 352.801 139.732 352.801ZM176.947 365.185V318.817H203.443C208.147 318.817 211.771 319.945 214.315 322.201C216.859 324.457 218.131 327.649 218.131 331.777C218.131 334.129 217.699 336.121 216.835 337.753C216.019 339.385 214.915 340.681 213.523 341.641C215.443 342.457 216.955 343.585 218.059 345.025C219.163 346.417 219.715 348.505 219.715 351.289C219.715 355.657 218.323 359.065 215.539 361.513C212.755 363.961 208.867 365.185 203.875 365.185H176.947ZM191.635 336.961H199.267C202.051 336.961 203.443 335.713 203.443 333.217C203.443 332.017 203.083 331.105 202.363 330.481C201.691 329.809 200.587 329.473 199.051 329.473H191.635V336.961ZM191.635 354.601H199.555C202.483 354.601 203.947 353.257 203.947 350.569C203.947 348.073 202.435 346.825 199.411 346.825H191.635V354.601ZM232.696 365.185V318.817H248.176V365.185H232.696ZM272.074 365.185V330.121H259.69V318.817H300.01V330.121H287.554V365.185H272.074ZM311.5 365.185V318.817H347.572V330.265H326.98V336.169H344.908V347.905H326.98V353.737H347.572V365.185H311.5ZM375.771 365.905C372.555 365.905 369.483 365.641 366.555 365.113C363.675 364.585 361.227 363.841 359.211 362.881V350.785C361.467 351.841 363.939 352.705 366.627 353.377C369.363 354.049 371.859 354.385 374.115 354.385C376.035 354.385 377.499 354.193 378.507 353.809C379.563 353.425 380.091 352.705 380.091 351.649C380.091 350.449 379.299 349.585 377.715 349.057C376.131 348.481 373.851 347.689 370.875 346.681C367.803 345.625 365.379 344.497 363.603 343.297C361.875 342.049 360.627 340.561 359.859 338.833C359.091 337.057 358.707 334.897 358.707 332.353C358.707 322.849 365.307 318.097 378.507 318.097C380.139 318.097 381.867 318.217 383.691 318.457C385.563 318.649 387.339 318.913 389.019 319.249C390.747 319.537 392.211 319.873 393.411 320.257V332.425C390.963 331.465 388.707 330.793 386.643 330.409C384.627 329.977 382.779 329.761 381.099 329.761C379.419 329.761 377.883 329.905 376.491 330.193C375.147 330.433 374.475 331.105 374.475 332.209C374.475 333.121 375.075 333.817 376.275 334.297C377.475 334.729 379.491 335.329 382.323 336.097C386.115 337.153 388.971 338.401 390.891 339.841C392.859 341.281 394.179 342.985 394.851 344.953C395.571 346.873 395.931 349.081 395.931 351.577C395.931 355.897 394.251 359.377 390.891 362.017C387.531 364.609 382.491 365.905 375.771 365.905Z" fill="#79AE7A"/>
  <path d="M20.8634 399.809C18.2714 399.809 16.2874 399.113 14.9114 397.721C13.5354 396.313 12.8474 394.401 12.8474 391.985C12.8474 389.425 13.5114 387.433 14.8394 386.009C16.1834 384.585 18.1834 383.873 20.8394 383.873C21.7674 383.873 22.5994 383.945 23.3354 384.089C24.0874 384.217 24.7914 384.401 25.4474 384.641V387.473C24.0874 386.913 22.6314 386.633 21.0794 386.633C19.3194 386.633 18.0554 387.073 17.2874 387.953C16.5194 388.833 16.1354 390.177 16.1354 391.985C16.1354 395.377 17.7994 397.073 21.1274 397.073C21.8794 397.073 22.6234 397.009 23.3594 396.881C24.0954 396.737 24.7994 396.529 25.4714 396.257V399.113C24.8154 399.321 24.1114 399.489 23.3594 399.617C22.6234 399.745 21.7914 399.809 20.8634 399.809ZM39.0813 399.809C34.0733 399.809 31.5693 397.177 31.5693 391.913C31.5693 389.081 32.2013 387.033 33.4653 385.769C34.7293 384.505 36.6013 383.873 39.0813 383.873C41.5613 383.873 43.4333 384.505 44.6973 385.769C45.9613 387.033 46.5933 389.081 46.5933 391.913C46.5933 397.177 44.0893 399.809 39.0813 399.809ZM39.0813 397.049C40.5373 397.049 41.6013 396.633 42.2733 395.801C42.9613 394.953 43.3053 393.657 43.3053 391.913C43.3053 389.977 42.9613 388.617 42.2733 387.833C41.6013 387.033 40.5373 386.633 39.0813 386.633C37.6253 386.633 36.5533 387.033 35.8653 387.833C35.1933 388.617 34.8573 389.977 34.8573 391.913C34.8573 393.657 35.1933 394.953 35.8653 395.801C36.5533 396.633 37.6253 397.049 39.0813 397.049ZM60.6859 399.809C55.6779 399.809 53.1739 397.177 53.1739 391.913C53.1739 389.081 53.8059 387.033 55.0699 385.769C56.3339 384.505 58.2059 383.873 60.6859 383.873C63.1659 383.873 65.0379 384.505 66.3019 385.769C67.5659 387.033 68.1979 389.081 68.1979 391.913C68.1979 397.177 65.6939 399.809 60.6859 399.809ZM60.6859 397.049C62.1419 397.049 63.2059 396.633 63.8779 395.801C64.5659 394.953 64.9099 393.657 64.9099 391.913C64.9099 389.977 64.5659 388.617 63.8779 387.833C63.2059 387.033 62.1419 386.633 60.6859 386.633C59.2299 386.633 58.1579 387.033 57.4699 387.833C56.7979 388.617 56.4619 389.977 56.4619 391.913C56.4619 393.657 56.7979 394.953 57.4699 395.801C58.1579 396.633 59.2299 397.049 60.6859 397.049ZM75.2586 399.569V384.113H78.4986V390.665L84.4506 384.113H88.1706L82.5786 390.377L88.4586 399.569H85.0026L80.5626 392.441L78.4986 394.673V399.569H75.2586ZM110.377 399.809C109.385 399.809 108.457 399.737 107.593 399.593C106.745 399.449 106.009 399.241 105.385 398.969V396.113C106.089 396.401 106.849 396.633 107.665 396.809C108.481 396.985 109.281 397.073 110.065 397.073C111.185 397.073 112.009 396.969 112.537 396.761C113.065 396.553 113.329 396.081 113.329 395.345C113.329 394.881 113.217 394.513 112.993 394.241C112.769 393.969 112.377 393.729 111.817 393.521C111.273 393.297 110.497 393.049 109.489 392.777C107.873 392.329 106.737 391.769 106.081 391.097C105.425 390.425 105.097 389.497 105.097 388.313C105.097 386.889 105.617 385.793 106.657 385.025C107.697 384.257 109.209 383.873 111.193 383.873C112.121 383.873 112.985 383.937 113.785 384.065C114.585 384.193 115.233 384.345 115.729 384.521V387.377C114.417 386.881 113.049 386.633 111.625 386.633C110.617 386.633 109.825 386.745 109.249 386.969C108.673 387.177 108.385 387.625 108.385 388.313C108.385 388.713 108.489 389.033 108.697 389.273C108.905 389.513 109.257 389.729 109.753 389.921C110.265 390.113 110.977 390.329 111.889 390.569C113.153 390.905 114.129 391.305 114.817 391.769C115.505 392.233 115.977 392.761 116.233 393.353C116.505 393.945 116.641 394.609 116.641 395.345C116.641 396.689 116.129 397.769 115.105 398.585C114.081 399.401 112.505 399.809 110.377 399.809ZM123.69 399.569V384.113H126.954L131.49 393.401L136.026 384.113H139.266V399.569H136.026V389.513L132.426 396.905H130.554L126.93 389.513V399.569H123.69ZM146.315 399.569L152.219 384.113H155.771L161.651 399.569H158.291L156.827 395.849H151.139L149.699 399.569H146.315ZM151.619 393.353H156.347L153.971 387.137L151.619 393.353ZM168.704 399.569V384.113H176.12C177.896 384.113 179.2 384.585 180.032 385.529C180.864 386.457 181.28 387.713 181.28 389.297C181.28 390.337 181.008 391.233 180.464 391.985C179.936 392.737 179.184 393.281 178.208 393.617C178.464 393.825 178.664 394.049 178.808 394.289C178.968 394.529 179.128 394.849 179.288 395.249L181.16 399.569H177.8L175.976 395.417C175.816 395.065 175.64 394.817 175.448 394.673C175.256 394.529 174.936 394.457 174.488 394.457H171.944V399.569H168.704ZM171.944 391.769H175.28C176.128 391.769 176.792 391.585 177.272 391.217C177.752 390.833 177.992 390.193 177.992 389.297C177.992 388.433 177.784 387.801 177.368 387.401C176.952 387.001 176.32 386.801 175.472 386.801H171.944V391.769ZM192.132 399.569V386.609H187.38V384.113H200.1V386.609H195.372V399.569H192.132ZM203.933 402.449L204.677 397.625H207.461L206.261 402.449H203.933ZM227.704 399.569L224.104 384.113H227.296L229.624 394.553L232.144 386.129V384.113H234.784L237.76 394.577L240.16 384.113H243.328L239.752 399.569H236.68L233.848 389.681L230.8 399.569H227.704ZM247.63 399.569L253.534 384.113H257.086L262.966 399.569H259.606L258.142 395.849H252.454L251.014 399.569H247.63ZM252.934 393.353H257.662L255.286 387.137L252.934 393.353ZM273.741 399.809C272.749 399.809 271.821 399.737 270.957 399.593C270.109 399.449 269.373 399.241 268.749 398.969V396.113C269.453 396.401 270.213 396.633 271.029 396.809C271.845 396.985 272.645 397.073 273.429 397.073C274.549 397.073 275.373 396.969 275.901 396.761C276.429 396.553 276.693 396.081 276.693 395.345C276.693 394.881 276.581 394.513 276.357 394.241C276.133 393.969 275.741 393.729 275.181 393.521C274.637 393.297 273.861 393.049 272.853 392.777C271.237 392.329 270.101 391.769 269.445 391.097C268.789 390.425 268.461 389.497 268.461 388.313C268.461 386.889 268.981 385.793 270.021 385.025C271.061 384.257 272.573 383.873 274.557 383.873C275.485 383.873 276.349 383.937 277.149 384.065C277.949 384.193 278.597 384.345 279.093 384.521V387.377C277.781 386.881 276.413 386.633 274.989 386.633C273.981 386.633 273.189 386.745 272.613 386.969C272.037 387.177 271.749 387.625 271.749 388.313C271.749 388.713 271.853 389.033 272.061 389.273C272.269 389.513 272.621 389.729 273.117 389.921C273.629 390.113 274.341 390.329 275.253 390.569C276.517 390.905 277.493 391.305 278.181 391.769C278.869 392.233 279.341 392.761 279.597 393.353C279.869 393.945 280.005 394.609 280.005 395.345C280.005 396.689 279.493 397.769 278.469 398.585C277.445 399.401 275.869 399.809 273.741 399.809ZM290.119 399.569V386.609H285.367V384.113H298.087V386.609H293.359V399.569H290.119ZM304.674 399.569V384.113H315.762V386.633H307.914V390.593H314.874V393.089H307.914V397.073H315.762V399.569H304.674ZM332.884 399.569V384.113H336.124V397.073H343.732V399.569H332.884ZM350.316 399.569V384.113H361.404V386.633H353.556V390.593H360.516V393.089H353.556V397.073H361.404V399.569H350.316ZM373.252 399.809C372.26 399.809 371.332 399.737 370.468 399.593C369.62 399.449 368.884 399.241 368.26 398.969V396.113C368.964 396.401 369.724 396.633 370.54 396.809C371.356 396.985 372.156 397.073 372.94 397.073C374.06 397.073 374.884 396.969 375.412 396.761C375.94 396.553 376.204 396.081 376.204 395.345C376.204 394.881 376.092 394.513 375.868 394.241C375.644 393.969 375.252 393.729 374.692 393.521C374.148 393.297 373.372 393.049 372.364 392.777C370.748 392.329 369.612 391.769 368.956 391.097C368.3 390.425 367.972 389.497 367.972 388.313C367.972 386.889 368.492 385.793 369.532 385.025C370.572 384.257 372.084 383.873 374.068 383.873C374.996 383.873 375.86 383.937 376.66 384.065C377.46 384.193 378.108 384.345 378.604 384.521V387.377C377.292 386.881 375.924 386.633 374.5 386.633C373.492 386.633 372.7 386.745 372.124 386.969C371.548 387.177 371.26 387.625 371.26 388.313C371.26 388.713 371.364 389.033 371.572 389.273C371.78 389.513 372.132 389.729 372.628 389.921C373.14 390.113 373.852 390.329 374.764 390.569C376.028 390.905 377.004 391.305 377.692 391.769C378.38 392.233 378.852 392.761 379.108 393.353C379.38 393.945 379.516 394.609 379.516 395.345C379.516 396.689 379.004 397.769 377.98 398.585C376.956 399.401 375.38 399.809 373.252 399.809ZM390.896 399.809C389.904 399.809 388.976 399.737 388.112 399.593C387.264 399.449 386.528 399.241 385.904 398.969V396.113C386.608 396.401 387.368 396.633 388.184 396.809C389 396.985 389.8 397.073 390.584 397.073C391.704 397.073 392.528 396.969 393.056 396.761C393.584 396.553 393.848 396.081 393.848 395.345C393.848 394.881 393.736 394.513 393.512 394.241C393.288 393.969 392.896 393.729 392.336 393.521C391.792 393.297 391.016 393.049 390.008 392.777C388.392 392.329 387.256 391.769 386.6 391.097C385.944 390.425 385.616 389.497 385.616 388.313C385.616 386.889 386.136 385.793 387.176 385.025C388.216 384.257 389.728 383.873 391.712 383.873C392.64 383.873 393.504 383.937 394.304 384.065C395.104 384.193 395.752 384.345 396.248 384.521V387.377C394.936 386.881 393.568 386.633 392.144 386.633C391.136 386.633 390.344 386.745 389.768 386.969C389.192 387.177 388.904 387.625 388.904 388.313C388.904 388.713 389.008 389.033 389.216 389.273C389.424 389.513 389.776 389.729 390.272 389.921C390.784 390.113 391.496 390.329 392.408 390.569C393.672 390.905 394.648 391.305 395.336 391.769C396.024 392.233 396.496 392.761 396.752 393.353C397.024 393.945 397.16 394.609 397.16 395.345C397.16 396.689 396.648 397.769 395.624 398.585C394.6 399.401 393.024 399.809 390.896 399.809Z" fill="#79AE7A"/>
</svg>
