<svg width="150" height="150" viewBox="0 0 150 150" fill="none" xmlns="http://www.w3.org/2000/svg">
  <path d="M124.235 150C90.9626 150 58.3448 150 25.3418 150C25.6499 148.546 26.189 147.247 26.112 145.979C26.035 144.711 25.3803 143.443 24.8797 142.237C24.3405 140.999 23.2237 139.855 23.0697 138.618C20.2585 113.564 19.6808 88.4801 20.143 63.3649C20.143 63.1484 20.297 62.9319 20.528 62.3133C21.7989 62.2514 23.2623 62.1586 24.7256 62.1586C58.0752 62.1586 91.4248 62.1896 124.774 62.0968C128.548 62.0968 129.819 62.8391 129.665 65.963C128.51 90.0575 127.547 114.152 126.469 138.216C126.43 138.989 126.507 140.071 125.968 140.443C122.117 143.072 123.157 146.319 124.235 150ZM40.0526 86.1603C40.0526 82.5106 40.0141 78.8609 40.0526 75.2111C40.0526 72.9223 39.0513 71.0974 36.009 71.0356C32.9667 70.9737 31.7729 72.7058 31.7729 75.0255C31.7729 82.325 31.7729 89.6555 31.7729 96.9549C31.7729 99.151 32.9282 100.728 35.778 100.759C38.8588 100.79 40.0526 99.12 40.0526 96.8003C40.0526 93.2433 40.0526 89.7173 40.0526 86.1603Z" fill="#79AE7A"/>
  <path d="M20.8733 56.9776C20.8733 48.7047 20.6801 40.6805 20.9506 32.6875C21.2211 25.2232 21.9166 17.7278 22.5349 10.2634C22.9213 5.41163 24.2738 4.26088 30.1086 3.39004C59.6695 -1.11965 89.1917 -1.15075 118.714 3.42115C125.244 4.44749 126.404 5.19392 126.79 10.6056C127.872 25.0055 128.683 39.4054 129.649 53.7742C129.804 55.9513 129.418 57.2886 125.94 57.2575C91.6261 57.1642 57.351 57.1953 23.0372 57.1953C22.1098 57.2264 21.1824 57.0087 20.8733 56.9776ZM39.885 33.9937C39.885 30.2927 39.885 26.6227 39.885 22.9217C39.885 20.6513 38.9189 18.7852 35.789 18.723C32.659 18.6919 31.5384 20.4336 31.5384 22.7662C31.5384 29.9195 31.577 37.0728 31.5384 44.2261C31.5384 46.5276 32.4658 48.3626 35.5958 48.3937C38.9962 48.4248 39.885 46.4654 39.8463 44.0395C39.8463 40.7116 39.885 37.3527 39.885 33.9937Z" fill="#79AE7A"/>
  <path d="M119.194 65.3226H124.032C124.032 65.3226 122.802 96.0492 122.351 100.368C121.9 104.686 119.932 75.948 119.194 65.7575" fill="#364B36"/>
  <path d="M119.194 53.2258H124.025C124.025 53.2258 124.23 29.4441 122.469 19.3549C122.428 19.3549 119.931 38.1547 119.194 53.2258Z" fill="#364B36"/>
</svg>
